<svg xmlns="http://www.w3.org/2000/svg" viewBox="0 0 100 100" fill="none" stroke="currentColor" stroke-width="5" stroke-linecap="round" stroke-linejoin="round">
  <!-- 神经网络的连线，使用当前的 currentColor 适配 VS Code 主题 -->
  <path d="M50 20 C32 20, 24 35, 24 50 C24 65, 32 80, 50 80 C68 80, 76 65, 76 50 C76 35, 68 20, 50 20 Z" />
  <path d="M50 20 L50 80" />
  <path d="M36 30 C42 36, 42 44, 36 50 C30 56, 30 64, 36 70" />
  <path d="M64 30 C58 36, 58 44, 64 50 C70 56, 70 64, 64 70" />
  
  <!-- 核心彩色特征节点，与界面设计系统保持一致 -->
  <circle cx="50" cy="20" r="6" fill="#0284c7" stroke="none" />
  <circle cx="50" cy="50" r="6" fill="#c084fc" stroke="none" />
  <circle cx="50" cy="80" r="6" fill="#fb7185" stroke="none" />
  
  <!-- 边缘标准节点，随主题色自适应 -->
  <circle cx="36" cy="30" r="4" fill="currentColor" stroke="none" />
  <circle cx="24" cy="50" r="4" fill="currentColor" stroke="none" />
  <circle cx="36" cy="70" r="4" fill="currentColor" stroke="none" />
  <circle cx="64" cy="30" r="4" fill="currentColor" stroke="none" />
  <circle cx="76" cy="50" r="4" fill="currentColor" stroke="none" />
  <circle cx="64" cy="70" r="4" fill="currentColor" stroke="none" />
</svg>
